<?xml version="1.0" encoding="utf-8"?>
<!-- Generator: Adobe Illustrator 26.0.0, SVG Export Plug-In . SVG Version: 6.00 Build 0)  -->
<svg version="1.1" id="svg4725" xmlns:svg="http://www.w3.org/2000/svg"
	 xmlns="http://www.w3.org/2000/svg" xmlns:xlink="http://www.w3.org/1999/xlink" x="0px" y="0px" viewBox="0 0 682.7 682.7"
	 style="enable-background:new 0 0 682.7 682.7;" xml:space="preserve">
<style type="text/css">
	.st0{fill:none;stroke:#FFFFFF;stroke-width:26.6667;stroke-linecap:round;stroke-linejoin:round;stroke-miterlimit:17.7777;}
	.st1{clip-path:url(#SVGID_00000166645129311222446330000004041460182224665279_);}
</style>
<g id="g4731" transform="matrix(1.3333333,0,0,-1.3333333,0,682.66667)">
	<g id="g4733" transform="translate(140.2183,365.918)">
		<path id="path4735" class="st0" d="M12.1-4.3h207.3"/>
	</g>
	<g id="g4737" transform="translate(140.2183,308.498)">
		<path id="path4739" class="st0" d="M12.1,1.7h207.3"/>
	</g>
	<g id="g4741" transform="translate(140.2183,251.0791)">
		<path id="path4743" class="st0" d="M12.1,7.7h207.3"/>
	</g>
	<g id="g4745">
		<g>
			<g>
				<defs>
					<rect id="SVGID_1_" x="-151.3" y="-148.6" width="814.7" height="814.7"/>
				</defs>
				<clipPath id="SVGID_00000059285922447187591620000013773829468838471043_">
					<use xlink:href="#SVGID_1_"  style="overflow:visible;"/>
				</clipPath>
				<g id="g4747" style="clip-path:url(#SVGID_00000059285922447187591620000013773829468838471043_);">
					<g id="g4753" transform="translate(340.1367,431.7891)">
						<path id="path4755" class="st0" d="M-8.9-15.7l-60.5,59.3c-8.4,7.6-21.2,7.6-29.6,0l-60.5-59.3"/>
					</g>
					<g id="g4757" transform="translate(468.4268,305.875)">
						<path id="path4759" class="st0" d="M-22.3-2.5l-28.4-28.4"/>
					</g>
					<g id="g4761" transform="translate(294.2417,131.998)">
						<path id="path4763" class="st0" d="M-4,15.8l162.6-89.3"/>
					</g>
					<g id="g4765" transform="translate(75.2969,274.207)">
						<path id="path4767" class="st0" d="M18.9,0.8L-9.4,29.2"/>
					</g>
					<g id="g4769" transform="translate(217.7583,131.998)">
						<path id="path4771" class="st0" d="M4,15.8l-162.6-89.3"/>
					</g>
					<g id="g4773" transform="translate(370.3315,7.5)">
						<path id="path4775" class="st0" d="M-12,28.8h72.4c12.2,0,22.1,9.8,22.1,22.1v229c0,6-2.4,11.7-6.7,15.9l-28.4,27.8"/>
					</g>
					<g id="g4777" transform="translate(36.085,169.7607)">
						<path id="path4779" class="st0" d="M23.1,11.8v-123.2c0-12.2,9.8-22.1,22.1-22.1H293"/>
					</g>
					<g id="g4781" transform="translate(75.2969,337.0107)">
						<path id="path4783" class="st0" d="M18.9-5.8L-9.4-33.6c-4.3-4.2-6.7-9.9-6.7-15.9v-76.6"/>
					</g>
					<g id="g4785" transform="translate(436.7031,389)">
						<path id="path4787" class="st0" d="M-19-11.2V4.7c0,12.4-10,22.4-22.4,22.4h-278.7c-12.4,0-22.4-10-22.4-22.4V-114
							l127.5-127.3l23.6,13c6.6,3.7,14.7,3.7,21.3,0l23.6-13L-19-114v74.2"/>
					</g>
				</g>
			</g>
		</g>
	</g>
</g>
</svg>
